{
  "accessors": [
    {
      "bufferView": 2,
      "componentType": 5126,
      "count": 60123,
      "max": [
        55.353763580322266,
        66.84651184082031,
        12.057730674743652
      ],
      "min": [
        -142.7550506591797,
        -66.84651184082031,
        -175.54286193847656
      ],
      "type": "VEC3"
    },
    {
      "bufferView": 2,
      "byteOffset": 721476,
      "componentType": 5126,
      "count": 60123,
      "max": [
        0.9999999403953552,
        1.0,
        1.0
      ],
      "min": [
        -0.9999999403953552,
        -1.0,
        -1.0
      ],
      "type": "VEC3"
    },
    {
      "bufferView": 3,
      "componentType": 5126,
      "count": 60123,
      "max": [
        1.0,
        1.0,
        0.9999980926513672,
        1.0
      ],
      "min": [
        -1.0,
        -1.0,
        -0.9999995827674866,
        -1.0
      ],
      "type": "VEC4"
    },
    {
      "bufferView": 1,
      "componentType": 5126,
      "count": 60123,
      "max": [
        0.9963255524635315,
        0.997999906539917
      ],
      "min": [
        0.0020000000949949026,
        0.0020000000949949026
      ],
      "type": "VEC2"
    },
    {
      "bufferView": 0,
      "componentType": 5125,
      "count": 347856,
      "type": "SCALAR"
    },
    {
      "bufferView": 2,
      "byteOffset": 1442952,
      "componentType": 5126,
      "count": 24892,
      "max": [
        21.764726638793945,
        42.34668731689453,
        23.943099975585938
      ],
      "min": [
        -22.754993438720703,
        -53.1115608215332,
        -21.64395523071289
      ],
      "type": "VEC3"
    },
    {
      "bufferView": 2,
      "byteOffset": 1741656,
      "componentType": 5126,
      "count": 24892,
      "max": [
        1.0,
        1.0,
        1.0
      ],
      "min": [
        -1.0,
        -1.0,
        -1.0
      ],
      "type": "VEC3"
    },
    {
      "bufferView": 1,
      "byteOffset": 480984,
      "componentType": 5126,
      "count": 24892,
      "max": [
        0.9979999661445618,
        0.9972168803215027
      ],
      "min": [
        0.0020000000949949026,
        0.0020000000949949026
      ],
      "type": "VEC2"
    },
    {
      "bufferView": 0,
      "byteOffset": 1391424,
      "componentType": 5125,
      "count": 136512,
      "type": "SCALAR"
    }
  ],
  "asset": {
    "extras": {
      "author": "serkanmert (https://sketchfab.com/serkanmer)",
      "license": "CC-BY-4.0 (http://creativecommons.org/licenses/by/4.0/)",
      "source": "https://sketchfab.com/3d-models/htc-vive-controller-f9cc5f021c044a25b2c89029448d9602",
      "title": "htc vive controller"
    },
    "generator": "Sketchfab-12.68.0",
    "version": "2.0"
  },
  "bufferViews": [
    {
      "buffer": 0,
      "byteLength": 1937472,
      "name": "floatBufferViews",
      "target": 34963
    },
    {
      "buffer": 0,
      "byteLength": 680120,
      "byteOffset": 1937472,
      "byteStride": 8,
      "name": "floatBufferViews",
      "target": 34962
    },
    {
      "buffer": 0,
      "byteLength": 2040360,
      "byteOffset": 2617592,
      "byteStride": 12,
      "name": "floatBufferViews",
      "target": 34962
    },
    {
      "buffer": 0,
      "byteLength": 961968,
      "byteOffset": 4657952,
      "byteStride": 16,
      "name": "floatBufferViews",
      "target": 34962
    }
  ],
  "buffers": [
    {
      "byteLength": 5619920,
      "uri": "scene.bin"
    }
  ],
  "images": [
    {
      "uri": "textures/Material_28_baseColor.png"
    },
    {
      "uri": "textures/Material_28_normal.png"
    },
    {
      "uri": "textures/Material_29_baseColor.png"
    }
  ],
  "materials": [
    {
      "doubleSided": true,
      "name": "Material_28",
      "normalTexture": {
        "index": 1
      },
      "pbrMetallicRoughness": {
        "baseColorTexture": {
          "index": 0
        },
        "metallicFactor": 0.7000000000000001,
        "roughnessFactor": 0.6
      }
    },
    {
      "doubleSided": true,
      "name": "Material_29",
      "pbrMetallicRoughness": {
        "baseColorTexture": {
          "index": 2
        },
        "metallicFactor": 0.73,
        "roughnessFactor": 0.6
      }
    }
  ],
  "meshes": [
    {
      "name": "Tube001_Material #28_0",
      "primitives": [
        {
          "attributes": {
            "NORMAL": 1,
            "POSITION": 0,
            "TANGENT": 2,
            "TEXCOORD_0": 3
          },
          "indices": 4,
          "material": 0,
          "mode": 4
        }
      ]
    },
    {
      "name": "Box001_Material #29_0",
      "primitives": [
        {
          "attributes": {
            "NORMAL": 6,
            "POSITION": 5,
            "TEXCOORD_0": 7
          },
          "indices": 8,
          "material": 1,
          "mode": 4
        }
      ]
    }
  ],
  "nodes": [
    {
      "children": [
        1
      ],
      "matrix": [
        0.003289630403742194,
        0.0,
        0.0,
        0.0,
        0.0,
        7.304446833483067e-19,
        -0.003289630403742194,
        0.0,
        0.0,
        0.003289630403742194,
        7.304446833483067e-19,
        0.0,
        0.0,
        0.0,
        0.0,
        1.0
      ],
      "name": "Sketchfab_model"
    },
    {
      "children": [
        2
      ],
      "matrix": [
        1.0,
        0.0,
        0.0,
        0.0,
        0.0,
        0.0,
        1.0,
        0.0,
        0.0,
        -1.0,
        0.0,
        0.0,
        0.0,
        0.0,
        0.0,
        1.0
      ],
      "name": "18afaabd603e43e69d3b1debda0abe8f.fbx"
    },
    {
      "children": [
        3,
        5
      ],
      "name": "RootNode"
    },
    {
      "children": [
        4
      ],
      "matrix": [
        1.204389419307006e-07,
        0.5000000067305832,
        0.8660253998985263,
        0.0,
        0.9999999999999751,
        1.0323827082103776e-07,
        -1.9867555645092239e-07,
        0.0,
        -1.887447445003687e-07,
        0.8660253998985286,
        -0.5000000067305583,
        0.0,
        -238.8098602294922,
        103.4785385131836,
        53.527008056640625,
        1.0
      ],
      "name": "Tube001"
    },
    {
      "mesh": 0,
      "name": "Tube001_Material #28_0"
    },
    {
      "children": [
        6
      ],
      "matrix": [
        0.9999999999999847,
        -1.0706202480049731e-23,
        1.7484555314694907e-07,
        0.0,
        -2.8485957267222986e-14,
        0.9999999999999867,
        1.6292068494294339e-07,
        0.0,
        -1.7484555314694674e-07,
        -1.6292068494294587e-07,
        0.9999999999999715,
        0.0,
        -238.689453125,
        25.214082717895508,
        27.129234313964844,
        1.0
      ],
      "name": "Box001"
    },
    {
      "mesh": 1,
      "name": "Box001_Material #29_0"
    }
  ],
  "samplers": [
    {
      "magFilter": 9729,
      "minFilter": 9987,
      "wrapS": 10497,
      "wrapT": 10497
    }
  ],
  "scene": 0,
  "scenes": [
    {
      "name": "Sketchfab_Scene",
      "nodes": [
        0
      ]
    }
  ],
  "textures": [
    {
      "sampler": 0,
      "source": 0
    },
    {
      "sampler": 0,
      "source": 1
    },
    {
      "sampler": 0,
      "source": 2
    }
  ]
}
